<?xml version="1.0" encoding="utf-8"?>
<!-- Generator: Adobe Illustrator 23.0.2, SVG Export Plug-In . SVG Version: 6.00 Build 0)  -->
<svg version="1.1" id="Layer_1" xmlns="http://www.w3.org/2000/svg" xmlns:xlink="http://www.w3.org/1999/xlink" x="0px" y="0px"
	 viewBox="0 0 42.7 35" style="enable-background:new 0 0 42.7 35;" xml:space="preserve">
<style type="text/css">
	.st0{fill:#FFFFFF;}
</style>
<title>Untitled-2</title>
<path class="st0" d="M0.3,22.9c0.8-2.9,2.3-5.5,4.4-7.6c2.2-2.1,4.8-3.7,7.7-4.5l1.1-0.3c0.4-0.1,0.7-0.1,1.1-0.2
	c0.7-0.1,1.5-0.2,2.3-0.2c0.4,0,0.8,0,1.1,0c0.4,0,0.8,0,1.1,0.1c0.7,0.1,1.5,0.2,2.2,0.4c2.9,0.6,5.6,2,7.8,4.1
	c-2.4-1.5-5.2-2.4-8-2.8c-2.8-0.4-5.6-0.2-8.3,0.6c-0.3,0.1-0.7,0.2-1,0.3l-1,0.4L10,13.4l-0.5,0.2L9,13.9l-0.9,0.5L7.3,15
	c-0.3,0.2-0.6,0.4-0.8,0.6l-0.8,0.7C3.4,18.1,1.6,20.4,0.3,22.9z"/>
<path class="st0" d="M42.7,12.1c-0.8,2.9-2.3,5.5-4.4,7.6c-2.2,2.1-4.8,3.7-7.7,4.5l-1.1,0.3c-0.4,0.1-0.7,0.1-1.1,0.2
	c-0.7,0.1-1.5,0.2-2.3,0.2c-0.4,0-0.8,0-1.1,0c-0.4,0-0.8,0-1.1-0.1c-0.7-0.1-1.5-0.2-2.2-0.4c-2.9-0.6-5.6-2-7.8-4.1
	c2.4,1.5,5.2,2.4,8,2.8c2.8,0.4,5.6,0.2,8.3-0.6c0.3-0.1,0.7-0.2,1-0.3l1-0.4l1-0.4l0.5-0.2l0.5-0.3l0.9-0.5l0.9-0.6
	c0.3-0.2,0.6-0.4,0.8-0.6l0.8-0.6C39.6,16.9,41.4,14.6,42.7,12.1z"/>
<path class="st0" d="M36,28.4c-1.8,2.1-4,3.7-6.5,4.8c-1.3,0.6-2.6,1-3.9,1.3C24.3,34.8,23,35,21.6,35c-1.4,0-2.7-0.1-4.1-0.3
	c-1.3-0.3-2.7-0.6-3.9-1.2c-2.5-1-4.8-2.6-6.6-4.6c2.1,1.6,4.5,2.8,7,3.7c2.5,0.8,5,1.2,7.6,1.2c2.6,0,5.1-0.5,7.6-1.4
	C31.7,31.4,34,30.1,36,28.4z"/>
<path class="st0" d="M7,6.6c1.8-2.1,4-3.7,6.5-4.8c1.2-0.6,2.5-1,3.9-1.3c2.7-0.6,5.5-0.6,8.2-0.1c1.3,0.3,2.7,0.6,3.9,1.2
	c2.5,1,4.8,2.6,6.6,4.6c-2.1-1.6-4.5-2.8-7-3.7c-2.5-0.8-5-1.2-7.6-1.2c-2.6,0-5.1,0.5-7.6,1.4C11.4,3.6,9.1,4.9,7,6.6z"/>
</svg>
