<svg id="Layer_1" data-name="Layer 1" xmlns="http://www.w3.org/2000/svg" viewBox="0 0 42.69 35"><defs><style>.cls-1{fill:#3e4637;}</style></defs><title>Untitled-2</title><path class="cls-1" d="M.34,22.91a16.86,16.86,0,0,1,4.4-7.6,18.18,18.18,0,0,1,7.71-4.53l1.1-.28c.37-.09.74-.13,1.12-.2a16.7,16.7,0,0,1,2.25-.22,10.39,10.39,0,0,1,1.13,0c.38,0,.75,0,1.13.06a16.22,16.22,0,0,1,2.22.37,16.23,16.23,0,0,1,7.77,4.08,21.34,21.34,0,0,0-8-2.84,19.33,19.33,0,0,0-8.26.57,7.5,7.5,0,0,0-1,.31l-1,.35-.95.44-.47.22L9,13.89l-.92.5L7.26,15a8.34,8.34,0,0,0-.85.61l-.83.65A22.45,22.45,0,0,0,.34,22.91Z"/><path class="cls-1" d="M42.69,12.09a16.86,16.86,0,0,1-4.4,7.6,18.18,18.18,0,0,1-7.71,4.53l-1.1.28c-.37.09-.74.13-1.12.2a16.7,16.7,0,0,1-2.25.22,10.39,10.39,0,0,1-1.13,0c-.38,0-.75,0-1.13-.06a16.22,16.22,0,0,1-2.22-.37,16.23,16.23,0,0,1-7.77-4.08,21.34,21.34,0,0,0,8,2.84,19.33,19.33,0,0,0,8.26-.57,7.5,7.5,0,0,0,1-.31l1-.35.95-.44.47-.22.46-.25.92-.5.87-.58a8.34,8.34,0,0,0,.85-.61l.83-.65A22.45,22.45,0,0,0,42.69,12.09Z"/><path class="cls-1" d="M36.05,28.44a17.74,17.74,0,0,1-6.46,4.82,19.82,19.82,0,0,1-3.9,1.28,21.78,21.78,0,0,1-4.08.46,22,22,0,0,1-4.09-.35,20,20,0,0,1-3.93-1.17A17.8,17.8,0,0,1,7,28.86a24.48,24.48,0,0,0,7,3.65,23.4,23.4,0,0,0,7.64,1.16A23.05,23.05,0,0,0,29.2,32.3,24.24,24.24,0,0,0,36.05,28.44Z"/><path class="cls-1" d="M7,6.56a17.74,17.74,0,0,1,6.46-4.82A19.82,19.82,0,0,1,17.34.46,20.85,20.85,0,0,1,25.52.35a20,20,0,0,1,3.93,1.17,17.8,17.8,0,0,1,6.6,4.63,24.48,24.48,0,0,0-7-3.65,23.4,23.4,0,0,0-7.64-1.16A23.05,23.05,0,0,0,13.83,2.7,24.24,24.24,0,0,0,7,6.56Z"/></svg>