<?xml version="1.0" standalone="no"?>
<!DOCTYPE svg PUBLIC "-//W3C//DTD SVG 20010904//EN"
 "http://www.w3.org/TR/2001/REC-SVG-20010904/DTD/svg10.dtd">
<svg version="1.0" xmlns="http://www.w3.org/2000/svg"
 width="688.000000pt" height="688.000000pt" viewBox="0 0 688.000000 688.000000"
 preserveAspectRatio="xMidYMid meet">
<metadata>
Created by potrace 1.11, written by Peter Selinger 2001-2013
</metadata>
<g transform="translate(0.000000,688.000000) scale(0.100000,-0.100000)"
fill="#000000" stroke="none">
<path d="M3248 6255 c-2 -2 -28 -6 -58 -9 -113 -11 -149 -15 -211 -26 -35 -5
-74 -12 -85 -14 -12 -2 -37 -7 -55 -10 -102 -16 -392 -102 -509 -149 -14 -6
-27 -11 -30 -12 -3 -1 -16 -7 -30 -13 -14 -5 -58 -24 -99 -41 -66 -28 -193
-92 -291 -148 -56 -32 -145 -86 -150 -92 -3 -4 -32 -24 -65 -46 -61 -41 -201
-153 -269 -214 -93 -85 -252 -251 -240 -251 3 0 50 33 104 73 54 39 106 78
116 84 72 48 100 66 189 119 110 67 271 152 325 174 19 7 43 20 53 28 9 8 17
12 17 7 0 -4 6 -3 13 3 17 14 157 72 157 65 0 -3 6 0 14 6 11 10 195 77 236
86 8 2 55 16 104 30 110 33 391 95 436 96 8 1 42 5 75 10 231 35 705 43 885
15 14 -3 52 -7 85 -11 32 -4 66 -8 75 -10 8 -1 38 -6 65 -9 58 -8 315 -63 360
-76 17 -5 84 -26 150 -46 235 -71 563 -214 800 -349 41 -23 209 -132 338 -218
41 -28 33 -16 -32 49 -154 153 -392 354 -420 354 -5 0 -11 3 -13 8 -3 7 -44
35 -140 96 -136 85 -505 255 -588 271 -11 2 -25 7 -30 10 -10 6 -195 61 -235
70 -11 2 -54 11 -95 20 -110 24 -106 24 -220 40 -58 8 -123 17 -145 20 -43 7
-581 15 -587 10z"/>
<path d="M2657 4634 c-1 -1 -40 -5 -87 -8 -71 -6 -228 -28 -355 -52 -144 -26
-490 -135 -518 -163 -6 -6 -18 -11 -27 -11 -20 0 -262 -122 -365 -185 -302
-183 -602 -453 -799 -719 -68 -92 -152 -221 -187 -286 -13 -25 -26 -47 -29
-50 -10 -9 -123 -251 -121 -257 0 -2 -10 -28 -24 -59 -14 -31 -25 -60 -25 -65
0 -4 -5 -20 -12 -36 -6 -15 -13 -36 -14 -45 -2 -9 -10 -36 -18 -60 -20 -56
-14 -59 14 -6 28 52 37 68 78 138 50 84 57 95 62 100 3 3 33 47 68 98 34 50
69 100 77 110 7 9 44 55 82 102 37 47 84 103 103 125 54 62 270 276 320 317
81 68 217 172 291 223 39 27 83 60 98 72 14 13 31 23 38 23 6 0 13 3 15 8 3 8
32 24 178 97 177 90 259 125 410 175 134 45 334 101 405 114 17 3 73 13 125
22 52 9 110 17 127 18 18 1 33 3 33 6 0 14 506 20 630 8 88 -9 160 -18 190
-23 14 -3 48 -8 75 -11 28 -4 53 -8 56 -10 4 -2 24 -6 45 -10 22 -3 57 -10 79
-16 22 -5 48 -12 58 -14 10 -2 27 -6 37 -9 10 -3 28 -8 39 -10 176 -34 643
-224 812 -331 57 -36 67 -29 17 12 -23 20 -51 45 -61 55 -10 10 -21 19 -25 19
-4 0 -18 10 -32 23 -105 95 -390 266 -570 342 -36 15 -78 33 -95 40 -111 47
-382 122 -545 151 -25 4 -47 8 -50 9 -3 1 -34 5 -70 9 -36 4 -78 10 -95 13
-29 5 -433 11 -438 7z"/>
<path d="M6840 4238 c-49 -102 -281 -459 -334 -514 -6 -6 -22 -26 -36 -44
-101 -132 -355 -393 -465 -477 -5 -5 -39 -31 -75 -59 -85 -66 -229 -164 -241
-164 -5 0 -9 -3 -9 -7 0 -8 -29 -26 -120 -75 -30 -16 -80 -42 -110 -59 -142
-76 -493 -213 -601 -234 -12 -2 -36 -9 -54 -15 -18 -6 -41 -12 -51 -14 -10 -2
-48 -11 -84 -19 -36 -8 -81 -18 -100 -21 -35 -6 -61 -11 -110 -21 -14 -3 -50
-7 -80 -10 -30 -3 -82 -8 -115 -12 -129 -15 -559 -7 -654 12 -13 2 -41 5 -63
7 -22 1 -42 6 -44 10 -3 5 -9 6 -14 3 -4 -3 -32 0 -61 5 -30 6 -65 13 -79 15
-68 13 -160 34 -167 38 -5 3 -22 8 -37 11 -88 16 -326 96 -476 161 -90 38
-292 136 -300 145 -3 3 -30 18 -60 33 l-55 29 35 -35 c19 -19 38 -33 43 -30 4
2 7 0 7 -6 0 -22 248 -201 400 -288 210 -120 485 -230 700 -278 111 -25 269
-54 320 -60 36 -4 81 -10 100 -12 98 -14 506 -6 610 11 14 2 46 7 71 10 44 6
61 9 139 22 126 20 375 92 520 151 75 30 353 163 360 172 3 3 25 17 50 30 81
43 233 149 345 238 182 146 434 411 521 548 10 17 21 32 25 35 30 23 251 428
275 502 3 12 13 37 22 57 9 20 16 38 17 41 0 3 14 43 29 90 27 82 39 130 34
130 -2 0 -14 -23 -28 -52z"/>
<path d="M5749 1637 c-9 -7 -29 -22 -45 -35 -56 -45 -259 -184 -284 -195 -14
-7 -27 -14 -30 -18 -10 -13 -219 -127 -325 -178 -60 -29 -118 -56 -127 -62
-56 -30 -398 -155 -478 -174 -8 -2 -60 -15 -115 -29 -55 -14 -111 -27 -125
-30 -105 -20 -139 -26 -170 -31 -19 -3 -46 -7 -60 -10 -238 -42 -712 -52 -955
-19 -16 2 -55 6 -85 9 -30 3 -64 7 -76 10 -12 3 -39 7 -60 11 -21 3 -82 15
-134 25 -52 11 -106 22 -120 25 -99 19 -323 90 -525 166 -87 33 -458 213 -515
249 -19 13 -37 23 -40 24 -11 1 -305 198 -312 208 -4 6 -10 9 -13 6 -3 -4 41
-52 97 -107 132 -129 150 -145 286 -248 285 -216 577 -362 946 -475 54 -17
107 -32 117 -34 11 -2 22 -6 27 -8 4 -3 24 -8 44 -11 21 -3 59 -11 85 -17 27
-6 62 -13 78 -15 17 -2 57 -9 90 -15 33 -6 74 -12 90 -14 17 -1 71 -7 120 -11
163 -16 594 -10 686 10 13 3 47 7 74 10 93 10 312 53 385 76 19 6 44 13 54 15
40 9 244 79 326 112 116 47 410 193 410 204 0 5 4 9 10 9 38 0 333 217 469
344 114 107 238 236 226 236 -6 0 -17 -6 -26 -13z"/>
</g>
</svg>
